<?xml version="1.0" standalone="no"?>
<svg viewBox="0 0 200 200" xmlns="http://www.w3.org/2000/svg">
  <path fill="#F2F4F8" d="M47.6,-74.2C62,-64.9,74,-52.1,82,-36.8C90,-21.5,94,-3.7,91.9,13.4C89.7,30.5,81.3,46.8,69.6,60.4C58,74.1,43.1,85,26.6,89.2C10.1,93.5,-8,91.1,-24.9,85.7C-41.9,80.4,-57.8,72.1,-68.9,59.5C-80,47,-86.4,30.2,-88.2,13.1C-90,-4,-87.3,-21.3,-80.3,-36.7C-73.3,-52.1,-62.1,-65.7,-48,-75.1C-34,-84.4,-17,-89.6,-0.2,-89.3C16.7,-89.1,33.3,-83.4,47.6,-74.2Z" transform="translate(100 100)" />
</svg>
