<?xml version="1.0" standalone="no"?>
<svg viewBox="0 0 200 200" xmlns="http://www.w3.org/2000/svg">
  <path fill="#F2F4F8" d="M44.8,-70.9C57.6,-61.4,67.3,-48.3,71.4,-34.1C75.6,-19.9,74.2,-4.7,73.6,11.7C73,28.1,73,45.7,64.7,57.1C56.4,68.4,39.7,73.4,23.2,77.6C6.7,81.8,-9.7,85.1,-25.5,82.4C-41.3,79.8,-56.6,71,-67.7,58.5C-78.9,46,-85.9,29.7,-85.5,14C-85.1,-1.7,-77.3,-16.7,-69.8,-31.3C-62.2,-45.8,-54.8,-59.8,-43.2,-69.8C-31.6,-79.8,-15.8,-85.8,0.1,-85.9C16,-86,31.9,-80.3,44.8,-70.9Z" transform="translate(100 100)" />
</svg>
